PathFileType	4	(X/Y/Z)	C:/Users/beibeiliu/ov580/test_trc/User2\sequence.10_training_dense_right.trc
DataRate	CameraRate	NumFrames	NumMarkers	Units	OrigDataRate	OrigDataStartFrame	OrigNumFrames
120	120	16	19	mm	120	1	57
Frame#	Time	ThumbCMC			ThumbMCP			ThumbIP			ThumbTip			IndexMCP			IndexPIP			IndexTip			MiddleMCP			MiddlePIP			MiddleTip			RingMCP			RingPIP			RingTip			PinkyMCP			PinkyPIP			PinkyTip			BackHand1			BackHand2			BackHand3	
		X0	Y0	Z0	X1	Y1	Z1	X2	Y2	Z2	X3	Y3	Z3	X4	Y4	Z4	X5	Y5	Z5	X6	Y6	Z6	X7	Y7	Z7	X8	Y8	Z8	X9	Y9	Z9	X10	Y10	Z10	X11	Y11	Z11	X12	Y12	Z12	X13	Y13	Z13	X14	Y14	Z14	X15	Y15	Z15	X16	Y16	Z16	X17	Y17	Z17	X18	Y18	Z18	
0	0	92.6195	-7.16775	-27.5235	66.4546	-12.911	-50.2145	48.3372	-16.8249	-79.65	36.9786	-22.0187	-100.324	106.444	27.6608	-102.79	100.485	33.5941	-132.444	94.1468	40.2389	-154.189	138.646	29.4154	-109.267	136.532	34.9782	-139.892	142.187	40.3227	-171.177	161.819	18.4086	-105.414	167.819	23.0687	-131.539	175.433	29.6879	-158.71	181.215	0.131496	-91.7926	194.142	0.885186	-113.793	206.514	5.69739	-130.738	156.933	13.407	-49.4982	155.666	13.0091	-14.7342	121.986	18.8541	-32.1141	
1	0.00833333	90.5784	-6.39854	-33.4634	70.8247	-14.3086	-50.7593	50.3194	-17.2966	-82.4128	34.9421	-24.2825	-99.2896	106.661	26.1667	-104.321	98.8518	33.967	-132.657	98.2239	39.8811	-159.755	135.382	28.7848	-109.468	136.962	35.8001	-144.968	143.106	41.0724	-174.146	160.276	19.3923	-108.7	172.217	21.1843	-129.039	175.046	29.8754	-159.243	180.73	-0.756193	-92.3643	195.601	0.83731	-115.554	205.192	6.63123	-136.393	156.532	12.4573	-50.8814	155.796	11.7749	-16.7591	121.456	20.0471	-36.4248	
2	0.0166667	89.4345	-9.29559	-29.1555	70.5796	-15.4303	-53.8582	48.4389	-18.8468	-81.978	37.507	-24.4744	-101.729	107.054	23.7144	-106.18	98.5991	29.7596	-130.437	99.2968	36.4657	-157.814	135.89	27.5209	-115.783	137.164	32.9967	-145.658	144.38	38.668	-176.408	163.12	15.9008	-108.243	168.539	19.0623	-130.585	176.211	26.3436	-158.834	181.607	-1.41153	-94.2521	194.879	-3.14293	-114.293	204.833	3.40104	-132.861	157.4	10.8745	-53.0762	158.817	11.1257	-20.4349	123.344	17.9468	-36.18	
3	0.025	88.0798	-7.63277	-32.2721	67.4958	-14.3831	-51.0681	48.4135	-16.8522	-83.4583	34.1394	-23.3256	-102.234	105.051	23.9559	-104.603	98.3793	31.1877	-135.064	100.173	37.3653	-159.979	139.973	26.9678	-114.034	141.511	32.6987	-146.896	147.036	37.2578	-174.946	162.126	17.8486	-110.081	171.018	20.9208	-134.128	175.462	26.3585	-160.201	181.35	-1.45599	-93.1968	193.364	-3.18084	-113.264	208.206	3.00944	-136.78	154.626	13.4379	-53.0141	156.759	9.13609	-18.2972	119.447	18.4188	-40.2052	
4	0.0333333	86.6164	-9.05999	-33.7544	67.9608	-16.4223	-52.4126	47.4148	-19.2594	-82.1828	34.5241	-25.5175	-103.496	105.826	23.1254	-108.753	97.8553	28.542	-132.261	99.6491	34.0161	-160.06	134.691	24.9932	-111.074	138.781	30.29	-147.591	143.073	34.5371	-174.793	160.271	14.1549	-105.808	167.826	19.3345	-136.201	174.948	23.2567	-163.92	181.64	-4.32768	-90.7181	195.467	-2.99974	-118.806	206.021	-4.27285	-142.196	154.556	9.81184	-50.215	159.044	8.63039	-18.1547	124.016	14.7049	-36.6949	
5	0.0416667	86.8072	-11.7214	-35.7268	69.451	-19.5388	-54.3328	50.0072	-24.7132	-80.1327	38.1859	-30.1494	-103.494	102.643	21.2585	-107.44	101.563	27.972	-135.699	93.255	34.4692	-162.93	136.782	24.8718	-110.915	140.699	29.4036	-145.551	141.23	26.0973	-177.25	159.116	16.4093	-108.605	169.308	18.1834	-134.861	167.785	11.508	-165.134	183.305	-3.30662	-93.78	191.649	-4.50195	-119.599	198.868	-17.4056	-149.761	158.42	7.76595	-53.2899	155.956	6.39063	-21.6083	123.354	13.8687	-40.779	
6	0.05	89.5084	-12.7881	-35.5503	67.4419	-22.0107	-55.0061	49.765	-28.8674	-86.5036	43.5979	-37.5348	-109.759	104.091	24.027	-106.304	96.8642	31.9054	-134.409	99.604	36.0136	-161.854	133.687	27.3345	-111.529	136.805	24.3865	-148.608	135.444	-0.857429	-176.09	161.356	16.0691	-109.178	165.393	10.1707	-139.524	157.056	-15.3248	-160.218	177.398	-4.54927	-94.895	185.999	-15.8435	-127.323	172.287	-41.3576	-143.985	155.051	9.36096	-50.7203	154.389	6.38346	-19.7714	121.519	14.5708	-39.7271	
7	0.0583333	88.942	-16.3553	-32.2125	72.5776	-29.2302	-60.1668	62.4868	-39.464	-92.8428	62.7258	-47.9693	-119.834	101.739	24.6507	-104.825	100.071	31.555	-135.298	97.8617	37.7726	-162.432	132.341	16.8697	-117.963	128.897	-2.34504	-149.795	122.916	-43.6125	-148.257	155.169	2.27827	-116.792	151.501	-18.6345	-140.643	133.714	-46.9389	-133.264	170.551	-12.7774	-99.3242	164.475	-32.676	-126.039	145.543	-61.4869	-117.314	154.487	9.72827	-56.0747	155.904	5.49456	-18.6975	119.63	14.7068	-36.2995	
8	0.0666667	90.7865	-18.8711	-38.8778	74.5779	-36.4272	-64.2223	72.1546	-47.9349	-96.2601	78.2848	-57.5268	-123.236	101.203	22.1923	-107.474	96.8246	30.3649	-133.96	97.5773	34.9954	-158.3	126.637	3.18364	-120.706	118.743	-29.8855	-141.894	111.636	-57.9728	-123.831	143.792	-11.722	-116.79	135.737	-40.2218	-130.828	122.447	-63.0826	-101.984	162.607	-25.3225	-105.665	145.151	-52.7151	-115.465	134.819	-67.5539	-90.1756	156.774	5.90067	-57.9444	157.69	2.06373	-24.3398	121.602	11.1853	-37.1531	
9	0.075	85.5842	-21.4668	-36.091	73.2487	-41.6926	-67.6143	73.111	-54.2743	-99.6826	86.9785	-62.169	-126.362	101.078	19.9189	-109.24	93.1852	26.2865	-132.383	94.4471	33.1465	-162.694	117.874	-7.49119	-123.944	110.692	-44.0972	-133.205	103.273	-66.3861	-106.39	138.177	-24.5139	-116.573	125.669	-54.2115	-120.056	114.705	-64.8675	-85.9838	156.2	-37.4417	-106.272	135.297	-64.0671	-103.311	124.19	-64.4019	-72.9202	149.206	0.787094	-58.4605	155.24	-2.0144	-27.8343	121.871	10.0196	-38.1268	
10	0.0833333	85.3477	-23.7207	-39.9684	68.0064	-46.5523	-69.1901	68.2758	-64.6108	-100.186	87.8777	-72.8696	-122.709	97.289	12.509	-108.57	91.7434	19.1264	-139.529	96.4498	22.7833	-163.436	116.473	-20.5326	-122.905	108.159	-54.9854	-128.747	99.5367	-72.2967	-94.0534	132.715	-40.9079	-116.503	119.208	-67.7931	-110.88	109.33	-69.8003	-75.506	149.591	-50.8457	-102.85	127.256	-72.7735	-92.0931	120.025	-63.5253	-58.7966	147.635	-5.33036	-59.7121	152.579	-5.47623	-25.9091	118.663	3.89763	-40.7333	
11	0.0916667	79.3665	-23.5371	-34.208	64.3966	-46.8861	-60.5216	60.0691	-69.9421	-94.0467	76.4855	-83.8108	-114.868	92.9417	3.57844	-114.043	91.2402	5.51253	-142.244	90.9275	7.58306	-169.675	107.738	-30.4137	-119.446	93.9793	-67.7256	-120.83	83.7368	-77.1758	-84.3971	122.152	-54.3193	-112.307	106.971	-79.4397	-101.417	97.2509	-72.9379	-64.9777	132.293	-64.1392	-98.7475	112.602	-82.6033	-78.5733	112.154	-67.6626	-50.031	145.998	-15.3707	-67.12	149.581	-12.0905	-30.0364	113.616	2.1344	-47.2611	
12	0.1	72.4437	-15.2007	-31.8875	52.0538	-40.613	-51.8946	41.4449	-65.5381	-74.7202	51.2779	-85.6028	-95.0858	86.9175	-3.55177	-116.846	83.4085	-7.54595	-142.328	78.5764	-7.96025	-165.429	91.5479	-43.8962	-118.294	73.5701	-75.7639	-107.982	66.3808	-77.2462	-72.1359	101.779	-66.3603	-104.693	83.6811	-87.1495	-86.4186	76.4526	-73.1844	-54.3651	114.245	-78.2612	-90.0308	90.8168	-85.5548	-67.9399	93.658	-66.2956	-41.9425	138.595	-24.5314	-66.676	145.106	-19.9543	-32.4034	114.585	1.61454	-46.2666	
13	0.108333	72.4427	-6.65069	-31.3516	41.1378	-27.0859	-42.4145	24.6845	-51.1012	-61.2044	24.8116	-75.276	-75.3829	79.8408	-11.1975	-111.867	71.2783	-15.453	-138.953	63.0946	-19.2256	-166.966	79.0588	-48.9808	-108.438	49.9224	-71.6563	-98.9542	43.7943	-68.6434	-56.8896	79.3871	-72.8926	-93.4016	56.1037	-78.8402	-76.1849	55.5913	-68.7941	-43.8431	93.2675	-82.922	-77.9297	66.9579	-82.299	-52.7723	72.2182	-62.1457	-33.4056	127.846	-33.6	-62.0663	139.101	-26.0595	-34.0454	112.766	0.831802	-48.2058	
14	0.116667	72.4268	6.00279	-29.3601	35.4337	-5.49036	-33.5965	11.9936	-27.7624	-48.855	6.32684	-56.1259	-64.3275	69.8702	-8.05022	-112.752	57.277	-15.2376	-136.481	46.2292	-17.6273	-158.378	58.1242	-42.7377	-101.065	29.1219	-59.5555	-87.6969	23.9621	-51.139	-47.1683	59.4851	-67.773	-82.8292	33.7835	-67.9384	-60.4614	39.4912	-49.2386	-30.5981	69.8731	-77.6847	-67.3169	45.4881	-74.4792	-43.3	57.221	-48.7385	-21.3221	117.365	-42.8584	-60.6474	133.365	-29.3334	-32.8458	110.114	-3.25726	-52.3797	
15	0.125	77.7556	19.6453	-30.0456	40.6108	14.6778	-30.813	8.86881	1.6924	-40.7798	-4.81095	-22.7512	-50.3322	63.9012	-0.410683	-108.95	46.4057	-2.86851	-131.912	33.2005	-5.23169	-152.854	43.0166	-33.0455	-94.0222	10.9839	-34.4317	-75.4121	9.89033	-26.3985	-39.9203	40.6638	-50.4777	-76.0744	19.0127	-51.7291	-53.7751	28.1731	-30.8395	-22.6391	50.0729	-66.6726	-58.7395	29.4857	-54.3699	-35.0057	44.9215	-31.8427	-15.6912	107.74	-44.6148	-57.8582	127.568	-36.7698	-34.7962	111.677	-2.81182	-50.6335	
